<?xml version="1.0" encoding="UTF-8"?>
<svg xmlns="http://www.w3.org/2000/svg" xmlns:xlink="http://www.w3.org/1999/xlink" width="100pt" height="100pt" viewBox="0 0 100 100" version="1.1">
<g id="surface15092259">
<path style=" stroke:none;fill-rule:nonzero;fill:rgb(76.47059%,21.960784%,39.215687%);fill-opacity:1;" d="M 86.058594 55.605469 C 82.566406 55.621094 79.539062 56.460938 77 57.710938 C 76.070312 55.859375 75.132812 54.230469 74.972656 53.019531 C 74.789062 51.605469 74.574219 50.761719 74.796875 49.074219 C 75.019531 47.386719 75.996094 45.003906 75.980469 44.824219 C 75.964844 44.644531 75.761719 43.789062 73.746094 43.773438 C 71.730469 43.757812 70.007812 44.160156 69.800781 44.691406 C 69.597656 45.222656 69.210938 46.421875 68.96875 47.671875 C 68.617188 49.5 64.945312 56.019531 62.859375 59.429688 C 62.179688 58.097656 61.597656 56.925781 61.476562 55.996094 C 61.292969 54.585938 61.078125 53.738281 61.300781 52.054688 C 61.523438 50.367188 62.5 47.980469 62.484375 47.804688 C 62.46875 47.625 62.265625 46.769531 60.25 46.753906 C 58.234375 46.738281 56.511719 47.140625 56.304688 47.671875 C 56.101562 48.203125 55.886719 49.449219 55.472656 50.652344 C 55.058594 51.855469 50.179688 62.730469 48.902344 65.546875 C 48.25 66.984375 47.683594 68.136719 47.285156 68.925781 C 47.28125 68.925781 47.28125 68.921875 47.28125 68.921875 C 47.28125 68.921875 47.257812 68.972656 47.214844 69.0625 C 46.871094 69.734375 46.667969 70.105469 46.667969 70.105469 C 46.667969 70.105469 46.671875 70.113281 46.675781 70.121094 C 46.402344 70.613281 46.113281 71.070312 45.96875 71.070312 C 45.867188 71.070312 45.664062 69.757812 46.011719 67.960938 C 46.738281 64.1875 48.480469 58.304688 48.464844 58.101562 C 48.457031 57.996094 48.789062 56.972656 47.324219 56.4375 C 45.902344 55.914062 45.394531 56.785156 45.265625 56.785156 C 45.140625 56.789062 45.046875 57.09375 45.046875 57.09375 C 45.046875 57.09375 46.632812 50.476562 42.023438 50.476562 C 39.140625 50.476562 35.148438 53.628906 33.183594 56.484375 C 31.941406 57.160156 29.285156 58.609375 26.46875 60.15625 C 25.386719 60.753906 24.28125 61.359375 23.234375 61.9375 C 23.160156 61.859375 23.09375 61.78125 23.019531 61.703125 C 17.429688 55.738281 7.101562 51.523438 7.539062 43.511719 C 7.699219 40.597656 8.710938 32.925781 27.386719 23.617188 C 42.6875 15.992188 54.933594 18.09375 57.050781 22.742188 C 60.074219 29.382812 50.503906 41.730469 34.617188 43.511719 C 28.5625 44.1875 25.378906 41.84375 24.585938 40.96875 C 23.75 40.046875 23.625 40.007812 23.3125 40.179688 C 22.804688 40.460938 23.128906 41.273438 23.3125 41.757812 C 23.789062 42.992188 25.734375 45.183594 29.054688 46.269531 C 31.972656 47.226562 39.078125 47.753906 47.675781 44.429688 C 57.300781 40.707031 64.816406 30.347656 62.613281 21.691406 C 60.367188 12.882812 45.765625 9.988281 31.949219 14.898438 C 23.722656 17.820312 14.820312 22.40625 8.421875 28.390625 C 0.808594 35.511719 -0.402344 41.707031 0.0976562 44.296875 C 1.875 53.496094 14.550781 59.484375 19.628906 63.925781 C 19.378906 64.0625 19.144531 64.195312 18.929688 64.3125 C 16.382812 65.570312 6.71875 70.628906 4.300781 75.972656 C 1.558594 82.035156 4.738281 86.386719 6.84375 86.972656 C 13.363281 88.785156 20.054688 85.523438 23.652344 80.15625 C 27.246094 74.796875 26.808594 67.8125 25.15625 64.625 C 25.136719 64.585938 25.113281 64.546875 25.09375 64.507812 C 25.753906 64.117188 26.421875 63.722656 27.085938 63.335938 C 28.382812 62.574219 29.652344 61.863281 30.757812 61.261719 C 30.140625 62.953125 29.6875 64.980469 29.453125 67.910156 C 29.175781 71.355469 30.585938 75.800781 32.433594 77.550781 C 33.242188 78.320312 34.222656 78.339844 34.84375 78.339844 C 36.988281 78.339844 37.96875 76.554688 39.046875 74.441406 C 40.371094 71.847656 41.546875 68.832031 41.546875 68.832031 C 41.546875 68.832031 40.070312 76.980469 44.089844 76.980469 C 45.550781 76.980469 47.023438 75.085938 47.679688 74.117188 C 47.679688 74.128906 47.679688 74.132812 47.679688 74.132812 C 47.679688 74.132812 47.71875 74.070312 47.792969 73.945312 C 47.945312 73.710938 48.03125 73.5625 48.03125 73.5625 C 48.03125 73.5625 48.035156 73.546875 48.039062 73.523438 C 48.625 72.503906 49.929688 70.175781 51.886719 66.335938 C 54.410156 61.375 56.835938 55.160156 56.835938 55.160156 C 56.835938 55.160156 57.0625 56.683594 57.800781 59.191406 C 58.234375 60.671875 59.15625 62.304688 59.886719 63.871094 C 59.300781 64.683594 58.941406 65.148438 58.941406 65.148438 C 58.941406 65.148438 58.945312 65.15625 58.949219 65.175781 C 58.480469 65.796875 57.957031 66.464844 57.40625 67.121094 C 55.410156 69.496094 53.035156 72.210938 52.71875 72.992188 C 52.34375 73.914062 52.433594 74.597656 53.15625 75.140625 C 53.683594 75.539062 54.625 75.601562 55.609375 75.535156 C 57.402344 75.414062 58.664062 74.96875 59.285156 74.699219 C 60.257812 74.355469 61.386719 73.816406 62.445312 73.035156 C 64.402344 71.597656 65.582031 69.539062 65.46875 66.8125 C 65.40625 65.3125 64.929688 63.824219 64.320312 62.417969 C 64.5 62.160156 64.679688 61.90625 64.855469 61.644531 C 67.941406 57.132812 70.332031 52.179688 70.332031 52.179688 C 70.332031 52.179688 70.558594 53.699219 71.296875 56.210938 C 71.671875 57.480469 72.40625 58.867188 73.070312 60.226562 C 70.171875 62.585938 68.371094 65.320312 67.746094 67.117188 C 66.59375 70.441406 67.496094 71.945312 69.191406 72.289062 C 69.960938 72.445312 71.046875 72.09375 71.863281 71.746094 C 72.878906 71.410156 74.097656 70.847656 75.238281 70.011719 C 77.195312 68.570312 79.074219 66.558594 78.960938 63.832031 C 78.910156 62.59375 78.574219 61.359375 78.117188 60.175781 C 80.574219 59.152344 83.761719 58.582031 87.8125 59.054688 C 96.511719 60.070312 98.21875 65.503906 97.890625 67.773438 C 97.566406 70.046875 95.742188 71.296875 95.132812 71.675781 C 94.523438 72.050781 94.335938 72.183594 94.386719 72.460938 C 94.460938 72.871094 94.742188 72.855469 95.265625 72.765625 C 95.980469 72.644531 99.828125 70.917969 99.996094 66.722656 C 100.203125 61.40625 95.101562 55.554688 86.058594 55.605469 Z M 19.023438 78.203125 C 16.144531 81.347656 12.117188 82.535156 10.390625 81.535156 C 8.527344 80.453125 9.265625 75.824219 12.800781 72.492188 C 14.957031 70.460938 17.738281 68.589844 19.585938 67.433594 C 20.003906 67.183594 20.621094 66.808594 21.371094 66.359375 C 21.492188 66.289062 21.5625 66.25 21.5625 66.25 L 21.5625 66.246094 C 21.707031 66.160156 21.855469 66.070312 22.007812 65.976562 C 23.292969 70.726562 22.046875 74.90625 19.023438 78.203125 Z M 40.011719 63.9375 C 39.007812 66.382812 36.90625 72.640625 35.628906 72.304688 C 34.53125 72.015625 33.863281 67.257812 35.40625 62.578125 C 36.1875 60.222656 37.847656 57.40625 38.824219 56.3125 C 40.398438 54.554688 42.128906 53.976562 42.550781 54.691406 C 43.089844 55.601562 40.640625 62.402344 40.011719 63.9375 Z M 57.351562 72.210938 C 56.925781 72.433594 56.535156 72.570312 56.355469 72.464844 C 56.21875 72.382812 56.53125 72.09375 56.53125 72.09375 C 56.53125 72.09375 58.699219 69.757812 59.554688 68.695312 C 60.050781 68.078125 60.628906 67.34375 61.253906 66.523438 C 61.261719 66.605469 61.261719 66.6875 61.261719 66.769531 C 61.253906 69.5625 58.554688 71.449219 57.351562 72.210938 Z M 70.707031 69.164062 C 70.390625 68.9375 70.445312 68.207031 71.484375 65.9375 C 71.894531 65.042969 72.828125 63.539062 74.457031 62.105469 C 74.644531 62.695312 74.761719 63.261719 74.757812 63.789062 C 74.734375 67.304688 72.222656 68.621094 70.707031 69.164062 Z M 70.707031 69.164062 "/>
</g>
</svg>
