<?xml version="1.0" encoding="UTF-8"?>
<svg xmlns="http://www.w3.org/2000/svg" xmlns:xlink="http://www.w3.org/1999/xlink" width="128pt" height="128pt" viewBox="0 0 128 128" version="1.1">
<g id="surface15090032">
<path style=" stroke:none;fill-rule:nonzero;fill:rgb(76.47059%,21.960784%,39.215687%);fill-opacity:1;" d="M 63.929688 4.003906 C 63.910156 4.003906 63.886719 4.011719 63.867188 4.011719 C 63.816406 4.015625 63.765625 4.03125 63.714844 4.039062 C 63.519531 4.066406 63.332031 4.125 63.148438 4.210938 C 63.117188 4.226562 63.082031 4.222656 63.050781 4.238281 L 11.050781 32.238281 C 10.882812 32.328125 10.738281 32.441406 10.605469 32.570312 C 10.578125 32.597656 10.5625 32.632812 10.535156 32.660156 C 10.40625 32.804688 10.300781 32.964844 10.214844 33.136719 C 10.1875 33.195312 10.160156 33.25 10.136719 33.3125 C 10.054688 33.53125 10 33.753906 10 33.992188 L 10 94 C 10 94.175781 10.027344 94.351562 10.070312 94.519531 C 10.128906 94.742188 10.238281 94.945312 10.367188 95.132812 C 10.398438 95.175781 10.429688 95.214844 10.464844 95.257812 C 10.609375 95.4375 10.777344 95.597656 10.980469 95.71875 C 10.984375 95.722656 10.988281 95.71875 10.992188 95.722656 C 10.996094 95.722656 10.996094 95.730469 11 95.730469 L 62.976562 125.71875 C 62.980469 125.71875 62.980469 125.722656 62.984375 125.722656 C 62.988281 125.722656 62.988281 125.726562 62.992188 125.726562 L 63 125.730469 C 63.089844 125.78125 63.1875 125.8125 63.28125 125.847656 C 63.347656 125.875 63.410156 125.910156 63.480469 125.929688 L 63.484375 125.929688 C 63.65625 125.976562 63.824219 126 63.996094 126 L 64 126 C 64.167969 126 64.34375 125.976562 64.507812 125.933594 C 64.542969 125.925781 64.570312 125.90625 64.605469 125.894531 C 64.730469 125.855469 64.855469 125.8125 64.972656 125.746094 L 118.972656 95.746094 C 118.980469 95.742188 118.984375 95.730469 118.992188 95.726562 C 119.011719 95.714844 119.03125 95.714844 119.050781 95.703125 C 119.234375 95.589844 119.386719 95.4375 119.523438 95.277344 C 119.558594 95.234375 119.585938 95.191406 119.617188 95.148438 C 119.734375 94.980469 119.832031 94.800781 119.894531 94.605469 C 119.902344 94.578125 119.914062 94.558594 119.921875 94.53125 C 119.96875 94.359375 120 94.183594 120 94 L 120 34 C 120 33.984375 119.992188 33.976562 119.992188 33.960938 C 119.988281 33.738281 119.9375 33.53125 119.863281 33.328125 C 119.835938 33.257812 119.8125 33.191406 119.777344 33.125 C 119.695312 32.960938 119.59375 32.8125 119.472656 32.675781 C 119.441406 32.640625 119.421875 32.601562 119.390625 32.570312 C 119.253906 32.4375 119.097656 32.316406 118.921875 32.226562 L 64.921875 4.226562 C 64.839844 4.183594 64.75 4.164062 64.664062 4.132812 C 64.613281 4.117188 64.570312 4.09375 64.519531 4.082031 C 64.328125 4.03125 64.128906 3.996094 63.929688 4.003906 Z M 66 9.289062 L 113.59375 33.964844 L 94.03125 43.75 L 66 28.800781 Z M 62 9.351562 L 62 28.800781 L 34.011719 43.726562 L 16.199219 34.011719 Z M 64 32.269531 L 89.75 46 L 64 59.730469 L 38.25 46 Z M 116 37.238281 L 116 90.765625 L 96 80.765625 L 96 47.234375 Z M 14 37.371094 L 32 47.1875 L 32 52 C 32 53.105469 32.894531 54 34 54 C 35.105469 54 36 53.105469 36 52 L 36 49.335938 L 62 63.199219 L 62 94.664062 L 36 80.800781 L 36 76 C 36 74.894531 35.105469 74 34 74 C 32.894531 74 32 74.894531 32 76 L 32 80.8125 L 14 90.628906 Z M 92 49.335938 L 92 82 C 92 82.101562 92.039062 82.183594 92.054688 82.28125 C 92.074219 82.425781 92.089844 82.566406 92.140625 82.703125 C 92.1875 82.824219 92.261719 82.921875 92.328125 83.03125 C 92.394531 83.140625 92.453125 83.25 92.542969 83.347656 C 92.640625 83.453125 92.757812 83.527344 92.875 83.609375 C 92.957031 83.667969 93.015625 83.742188 93.105469 83.789062 L 113.714844 94.09375 L 66 120.601562 L 66 63.199219 Z M 34 58 C 32.894531 58 32 58.894531 32 60 L 32 68 C 32 69.105469 32.894531 70 34 70 C 35.105469 70 36 69.105469 36 68 L 36 60 C 36 58.894531 35.105469 58 34 58 Z M 86.214844 81.796875 C 85.957031 81.820312 85.699219 81.898438 85.453125 82.027344 C 84.480469 82.546875 84.105469 83.757812 84.628906 84.730469 L 86.511719 88.261719 C 86.871094 88.9375 87.5625 89.320312 88.277344 89.320312 C 88.59375 89.320312 88.917969 89.246094 89.21875 89.085938 C 90.191406 88.566406 90.5625 87.351562 90.039062 86.378906 L 88.15625 82.847656 C 87.765625 82.117188 86.992188 81.726562 86.214844 81.796875 Z M 34.007812 84.273438 L 62 99.199219 L 62 120.539062 L 16.082031 94.046875 Z M 77.878906 86.242188 C 77.621094 86.265625 77.363281 86.339844 77.117188 86.46875 C 76.144531 86.988281 75.773438 88.203125 76.292969 89.175781 L 78.175781 92.707031 C 78.539062 93.382812 79.230469 93.765625 79.945312 93.765625 C 80.261719 93.765625 80.582031 93.6875 80.882812 93.53125 C 81.855469 93.011719 82.226562 91.796875 81.707031 90.824219 L 79.824219 87.292969 C 79.433594 86.5625 78.65625 86.171875 77.878906 86.242188 Z M 69.546875 90.683594 C 69.289062 90.707031 69.03125 90.785156 68.785156 90.914062 C 67.808594 91.433594 67.441406 92.648438 67.960938 93.621094 L 69.84375 97.148438 C 70.203125 97.824219 70.894531 98.207031 71.609375 98.207031 C 71.925781 98.207031 72.25 98.132812 72.550781 97.972656 C 73.523438 97.453125 73.894531 96.238281 73.371094 95.265625 L 71.488281 91.734375 C 71.101562 91.003906 70.324219 90.613281 69.546875 90.683594 Z M 69.546875 90.683594 "/>
</g>
</svg>
