<?xml version="1.0" encoding="UTF-8"?>
<svg xmlns="http://www.w3.org/2000/svg" xmlns:xlink="http://www.w3.org/1999/xlink" width="64pt" height="64pt" viewBox="0 0 64 64" version="1.1">
<g id="surface15092646">
<path style=" stroke:none;fill-rule:nonzero;fill:rgb(76.47059%,21.960784%,39.215687%);fill-opacity:1;" d="M 32 6 C 17.601562 6 6 17.601562 6 32 C 6 46.398438 17.601562 58 32 58 C 46.398438 58 58 46.398438 58 32 C 58 17.601562 46.398438 6 32 6 Z M 32 10 C 44.199219 10 54 19.800781 54 32 C 54 44.199219 44.199219 54 32 54 C 19.800781 54 10 44.199219 10 32 C 10 19.800781 19.800781 10 32 10 Z M 32.417969 18.089844 C 31.519531 18.242188 30.601562 21 30.601562 21 C 30.601562 21 28.199219 20.601562 26.199219 22.601562 C 25.800781 23 25.402344 23.199219 24.800781 23.398438 C 24.601562 23.597656 24.398438 23.601562 24 24.800781 C 23.199219 26.601562 25.199219 28.800781 25.199219 28.800781 C 21 31.800781 21.199219 35.800781 21.398438 36.800781 C 18.796875 39 19.796875 41.800781 20.398438 42.601562 C 20.796875 43.203125 21.199219 43 21.398438 43 C 21.398438 43.199219 20.398438 44.402344 21.398438 44.800781 C 22.398438 45.402344 24 45.601562 24.800781 44.800781 C 25.402344 44.199219 25.601562 43 25.800781 42.398438 C 26 42.199219 26 42.800781 26.800781 43.199219 C 26.800781 43.199219 25.398438 43.800781 26 45.199219 C 26.199219 45.597656 26.800781 46 28 46 C 28.398438 46 33.199219 45.796875 34.398438 45.398438 C 35.199219 45.199219 35.398438 44.800781 35.398438 44.800781 C 40.597656 43.402344 41.597656 41.199219 45.199219 40.398438 C 46.398438 40.199219 46.398438 38.199219 44.199219 38.398438 C 42.597656 38.398438 41.199219 39.199219 40 40 C 38 41.199219 36.601562 41.398438 36.601562 41.199219 C 36.402344 41 37.398438 38.601562 36.398438 36 C 35.398438 33.199219 33.601562 32.398438 33.800781 32.199219 C 34.402344 31.199219 35.796875 29.601562 36.398438 26.800781 C 36.597656 25 36.601562 22 35.800781 20.601562 C 35.601562 20.203125 34.398438 21 34.398438 21 C 34.398438 21 33.199219 18.398438 32.800781 18.199219 C 32.675781 18.097656 32.546875 18.066406 32.417969 18.089844 Z M 32.417969 18.089844 "/>
</g>
</svg>
